<svg height="512pt" viewBox="0 0 512 512" width="512pt" xmlns="http://www.w3.org/2000/svg"><path d="m364 492c0 11.046875-8.953125 20-20 20h-244c-44.113281 0-80-35.886719-80-80v-222c0-11.046875 8.953125-20 20-20s20 8.953125 20 20v222c0 22.054688 17.945312 40 40 40h244c11.046875 0 20 8.953125 20 20zm148-432v60c0 11.046875-8.953125 20-20 20v146c0 11.046875-8.953125 20-20 20s-20-8.953125-20-20v-146h-432c-11.046875 0-20-8.953125-20-20v-60c0-33.085938 26.914062-60 60-60h392c33.085938 0 60 26.914062 60 60zm-472 40h432v-40c0-11.027344-8.972656-20-20-20h-392c-11.027344 0-20 8.972656-20 20zm260 120c11.046875 0 20-8.953125 20-20s-8.953125-20-20-20h-90c-11.046875 0-20 8.953125-20 20s8.953125 20 20 20zm123.5 115h-105.492188l25.054688-24.777344c7.855469-7.769531 7.925781-20.433594.15625-28.285156-7.765625-7.851562-20.429688-7.925781-28.28125-.15625l-37.140625 36.726562c-9.523437 9.417969-14.777344 21.960938-14.796875 35.320313s5.199219 25.914063 14.695312 35.359375l37.199219 36.992188c3.90625 3.882812 9.003907 5.820312 14.105469 5.820312 5.136719 0 10.273438-1.96875 14.183594-5.898438 7.789062-7.832031 7.75-20.492187-.082032-28.28125l-22.945312-22.820312h103.34375c26.742188 0 48.5 21.757812 48.5 48.5s-21.507812 48.5-47.945312 48.5c-11.046876 0-20 8.953125-20 20s8.953124 20 20 20c23.644531 0 45.800781-9.234375 62.378906-26 16.488281-16.671875 25.566406-38.867188 25.566406-62.5 0-48.800781-39.699219-88.5-88.5-88.5zm0 0"/></svg>