<?xml version="1.0" ?><!DOCTYPE svg  PUBLIC '-//W3C//DTD SVG 1.1//EN'  'http://www.w3.org/Graphics/SVG/1.1/DTD/svg11.dtd'><svg width="32px" height="32px" viewBox="0 0 32 32" enable-background="new 0 0 32 32" version="1.1" xml:space="preserve" xmlns="http://www.w3.org/2000/svg" xmlns:xlink="http://www.w3.org/1999/xlink"><g id="Packaging_Delivery31"/><g id="Packaging_Delivery30"/><g id="Packaging_Delivery29"/><g id="Packaging_Delivery28"/><g id="Packaging_Delivery27"/><g id="Packaging_Delivery26"/><g id="Packaging_Delivery25"/><g id="Packaging_Delivery24"/><g id="Packaging_Delivery23"/><g id="Packaging_Delivery22"/><g id="Packaging_Delivery21"/><g id="Packaging_Delivery20"/><g id="Packaging_Delivery19"/><g id="Packaging_Delivery18"/><g id="Packaging_Delivery17"/><g id="Packaging_Delivery16"/><g id="Packaging_Delivery15"/><g id="Packaging_Delivery14"/><g id="Packaging_Delivery13"/><g id="Packaging_Delivery12"><path d="M26,5H16c-0.55,0-1,0.45-1,1v20c0,0.3,0.13,0.58,0.37,0.77c0.12,0.1,0.27,0.17,0.42,0.21h0.01   C15.87,26.99,15.93,27,16,27s0.13-0.01,0.2-0.02h0.01l9.99-2c0.46-0.09,0.8-0.5,0.8-0.98V6C27,5.45,26.55,5,26,5z" fill="#48B1DD"/><g><path d="M16,5v22c-0.07,0-0.13-0.01-0.2-0.02h-0.01l-9.99-2C5.34,24.89,5,24.48,5,24V6c0-0.55,0.45-1,1-1H16z" fill="#4391B2"/></g><g><path d="M16.88,5.53C16.71,5.2,16.37,5,16,5s-0.71,0.2-0.88,0.53c-0.18,0.32-0.16,0.72,0.05,1.02L16,7.8l0.83-1.25    C17.04,6.25,17.06,5.85,16.88,5.53z" fill="#96CEE5"/><path d="M15.17,6.55L16,7.8l-3.17,4.75C12.65,12.83,12.33,13,12,13H2c-0.37,0-0.71-0.2-0.88-0.53    c-0.18-0.32-0.16-0.72,0.05-1.02l4-6C5.35,5.17,5.67,5,6,5h10c-0.37,0-0.71,0.2-0.88,0.53C14.94,5.85,14.96,6.25,15.17,6.55z" fill="#96CEE5"/></g><g><path d="M16.88,5.53C16.71,5.2,16.37,5,16,5s-0.71,0.2-0.88,0.53c-0.18,0.32-0.16,0.72,0.05,1.02L16,7.8l0.83-1.25    C17.04,6.25,17.06,5.85,16.88,5.53z" fill="#96CEE5"/><path d="M31.02,12c0,0.55-0.45,1-1,1c-0.01,0-0.01,0-0.02,0H20c-0.33,0-0.65-0.17-0.83-0.45L16,7.8l0.83-1.25    c0.21-0.3,0.23-0.7,0.05-1.02C16.71,5.2,16.37,5,16,5h10c0.33,0,0.65,0.17,0.83,0.45l3.91,5.85C30.91,11.48,31.02,11.73,31.02,12z    " fill="#96CEE5"/></g><line fill="none" x1="16" x2="16" y1="29.38" y2="27"/></g><g id="Packaging_Delivery11"/><g id="Packaging_Delivery10"/><g id="Packaging_Delivery09"/><g id="Packaging_Delivery08"/><g id="Packaging_Delivery07"/><g id="Packaging_Delivery06"/><g id="Packaging_Delivery05"/><g id="Packaging_Delivery04"/><g id="Packaging_Delivery03"/><g id="Packaging_Delivery02"/><g id="Packaging_Delivery01"/></svg>