<?xml version="1.0" ?><!DOCTYPE svg  PUBLIC '-//W3C//DTD SVG 1.1//EN'  'http://www.w3.org/Graphics/SVG/1.1/DTD/svg11.dtd'><svg width="32px" height="32px" viewBox="0 0 32 32" enable-background="new 0 0 32 32" version="1.1" xml:space="preserve" xmlns="http://www.w3.org/2000/svg" xmlns:xlink="http://www.w3.org/1999/xlink"><g id="Packaging_Delivery31"/><g id="Packaging_Delivery30"/><g id="Packaging_Delivery29"/><g id="Packaging_Delivery28"/><g id="Packaging_Delivery27"/><g id="Packaging_Delivery26"/><g id="Packaging_Delivery25"/><g id="Packaging_Delivery24"/><g id="Packaging_Delivery23"/><g id="Packaging_Delivery22"><g><g><path d="M31,17v7c0,0.55-0.45,1-1,1H20c-0.55,0-1-0.45-1-1V12c0-0.55,0.45-1,1-1h6c0.3,0,0.59,0.14,0.78,0.38     l4,4.99c0.05,0.07,0.1,0.15,0.14,0.23c0,0.01,0,0.01,0,0.01s0,0,0,0.01C30.98,16.74,31,16.87,31,17z" fill="#48B1DD"/></g></g><g><path d="M21,6v19H8c-0.55,0-1-0.45-1-1V6c0-0.55,0.45-1,1-1h12C20.55,5,21,5.45,21,6z" fill="#96CEE5"/></g><g><path d="M31,17v0.01L25,17v-6h1c0.3,0,0.59,0.14,0.78,0.38l4,4.99c0.05,0.07,0.1,0.15,0.14,0.23    c0,0.01,0,0.01,0,0.01s0,0,0,0.01C30.98,16.74,31,16.87,31,17z" fill="#96CEE5"/></g><g><path d="M28,24c0,1.65-1.35,3-3,3s-3-1.35-3-3c0-1.65,1.35-3,3-3S28,22.35,28,24z" fill="#4391B2"/></g><g><path d="M17,24c0,1.65-1.35,3-3,3s-3-1.35-3-3c0-1.65,1.35-3,3-3S17,22.35,17,24z" fill="#4391B2"/></g><g><path d="M13,11H2c-0.5522,0-1-0.4473-1-1s0.4478-1,1-1h11c0.5522,0,1,0.4473,1,1S13.5522,11,13,11z" fill="#4391B2"/></g><g><path d="M14,18H5c-0.5522,0-1-0.4473-1-1s0.4478-1,1-1h9c0.5522,0,1,0.4473,1,1S14.5522,18,14,18z" fill="#4391B2"/></g></g><g id="Packaging_Delivery21"/><g id="Packaging_Delivery20"/><g id="Packaging_Delivery19"/><g id="Packaging_Delivery18"/><g id="Packaging_Delivery17"/><g id="Packaging_Delivery16"/><g id="Packaging_Delivery15"/><g id="Packaging_Delivery14"/><g id="Packaging_Delivery13"/><g id="Packaging_Delivery12"/><g id="Packaging_Delivery11"/><g id="Packaging_Delivery10"/><g id="Packaging_Delivery09"/><g id="Packaging_Delivery08"/><g id="Packaging_Delivery07"/><g id="Packaging_Delivery06"/><g id="Packaging_Delivery05"/><g id="Packaging_Delivery04"/><g id="Packaging_Delivery03"/><g id="Packaging_Delivery02"/><g id="Packaging_Delivery01"/></svg>