<?xml version="1.0" ?><!DOCTYPE svg  PUBLIC '-//W3C//DTD SVG 1.1//EN'  'http://www.w3.org/Graphics/SVG/1.1/DTD/svg11.dtd'><svg width="32px" height="32px" viewBox="0 0 32 32" enable-background="new 0 0 32 32" version="1.1" xml:space="preserve" xmlns="http://www.w3.org/2000/svg" xmlns:xlink="http://www.w3.org/1999/xlink"><g id="Packaging_Delivery31"/><g id="Packaging_Delivery30"/><g id="Packaging_Delivery29"/><g id="Packaging_Delivery28"/><g id="Packaging_Delivery27"/><g id="Packaging_Delivery26"/><g id="Packaging_Delivery25"/><g id="Packaging_Delivery24"/><g id="Packaging_Delivery23"/><g id="Packaging_Delivery22"/><g id="Packaging_Delivery21"/><g id="Packaging_Delivery20"/><g id="Packaging_Delivery19"/><g id="Packaging_Delivery18"/><g id="Packaging_Delivery17"><g><g><path d="M31.0088,9c0,0.55-0.45,1-1,1c0,0-0.01,0-0.02,0h-28c-0.36,0-0.69-0.19-0.87-0.5     c-0.17-0.31-0.17-0.69,0-1l4-7c0.18-0.31,0.51-0.5,0.87-0.5h20c0.36,0,0.69,0.19,0.87,0.5l3.91,6.85     C30.9187,8.53,31.0088,8.75,31.0088,9z" fill="#4391B2"/></g></g><g><g><path d="M31,9v21c0,0.55-0.45,1-1,1H2c-0.55,0-1-0.45-1-1V9H31z" fill="#48B1DD"/></g></g><path d="M21,19h-1v-2c0-2.21-1.79-4-4-4s-4,1.79-4,4v2h-1c-0.55,0-1,0.45-1,1v4c0,1.65,1.35,3,3,3h6   c1.65,0,3-1.35,3-3v-4C22,19.45,21.55,19,21,19z M14,17c0-1.1,0.9-2,2-2s2,0.9,2,2v2h-4V17z" fill="#96CEE5"/></g><g id="Packaging_Delivery16"/><g id="Packaging_Delivery15"/><g id="Packaging_Delivery14"/><g id="Packaging_Delivery13"/><g id="Packaging_Delivery12"/><g id="Packaging_Delivery11"/><g id="Packaging_Delivery10"/><g id="Packaging_Delivery09"/><g id="Packaging_Delivery08"/><g id="Packaging_Delivery07"/><g id="Packaging_Delivery06"/><g id="Packaging_Delivery05"/><g id="Packaging_Delivery04"/><g id="Packaging_Delivery03"/><g id="Packaging_Delivery02"/><g id="Packaging_Delivery01"/></svg>