<?xml version="1.0" ?><!DOCTYPE svg  PUBLIC '-//W3C//DTD SVG 1.1//EN'  'http://www.w3.org/Graphics/SVG/1.1/DTD/svg11.dtd'><svg width="32px" height="32px" viewBox="0 0 32 32" enable-background="new 0 0 32 32" version="1.1" xml:space="preserve" xmlns="http://www.w3.org/2000/svg" xmlns:xlink="http://www.w3.org/1999/xlink"><g id="Packaging_Delivery31"/><g id="Packaging_Delivery30"/><g id="Packaging_Delivery29"/><g id="Packaging_Delivery28"/><g id="Packaging_Delivery27"/><g id="Packaging_Delivery26"/><g id="Packaging_Delivery25"/><g id="Packaging_Delivery24"/><g id="Packaging_Delivery23"/><g id="Packaging_Delivery22"/><g id="Packaging_Delivery21"/><g id="Packaging_Delivery20"/><g id="Packaging_Delivery19"/><g id="Packaging_Delivery18"><g><path d="M16,9h-3c-2.2056,0-4-1.7939-4-4s1.7944-4,4-4s4,1.7939,4,4v3C17,8.5527,16.5522,9,16,9z M13,3    c-1.103,0-2,0.8975-2,2s0.897,2,2,2h2V5C15,3.8975,14.103,3,13,3z" fill="#96CEE5"/></g><g><path d="M19,9h-3c-0.5522,0-1-0.4473-1-1V5c0-2.2061,1.7944-4,4-4c2.2061,0,4,1.7939,4,4S21.2061,9,19,9z M17,7h2    c1.1025,0,2-0.8975,2-2s-0.8975-2-2-2s-2,0.8975-2,2V7z" fill="#96CEE5"/></g><g><path d="M29,14v16c0,0.55-0.45,1-1,1H4c-0.55,0-1-0.45-1-1V14c0-0.55,0.45-1,1-1h24C28.55,13,29,13.45,29,14z" fill="#48B1DD"/></g><g><path d="M31,8v6c0,0.55-0.45,1-1,1H2c-0.55,0-1-0.45-1-1V8c0-0.55,0.45-1,1-1h28C30.55,7,31,7.45,31,8z" fill="#4391B2"/></g><g><rect fill="#96CEE5" height="24" width="2" x="15" y="7"/></g></g><g id="Packaging_Delivery17"/><g id="Packaging_Delivery16"/><g id="Packaging_Delivery15"/><g id="Packaging_Delivery14"/><g id="Packaging_Delivery13"/><g id="Packaging_Delivery12"/><g id="Packaging_Delivery11"/><g id="Packaging_Delivery10"/><g id="Packaging_Delivery09"/><g id="Packaging_Delivery08"/><g id="Packaging_Delivery07"/><g id="Packaging_Delivery06"/><g id="Packaging_Delivery05"/><g id="Packaging_Delivery04"/><g id="Packaging_Delivery03"/><g id="Packaging_Delivery02"/><g id="Packaging_Delivery01"/></svg>